<!-- Generated by IcoMoon.io -->
<svg version="1.1" xmlns="http://www.w3.org/2000/svg" width="896" height="1024" viewBox="0 0 896 1024">
<title></title>
<g id="icomoon-ignore">
</g>
<path fill="#000" d="M0 192c0-35.34 28.66-64 64-64h768c35.4 0 64 28.66 64 64 0 35.4-28.6 64-64 64h-768c-35.34 0-64-28.6-64-64zM0 512c0-35.4 28.66-64 64-64h768c35.4 0 64 28.6 64 64s-28.6 64-64 64h-768c-35.34 0-64-28.6-64-64zM832 896h-768c-35.34 0-64-28.6-64-64s28.66-64 64-64h768c35.4 0 64 28.6 64 64s-28.6 64-64 64z"></path>
</svg>
